<svg width="30" height="31" viewBox="0 0 30 31" fill="none" xmlns="http://www.w3.org/2000/svg">
<path d="M0.150879 4.76849C0.150879 3.74986 0.534582 2.77295 1.21758 2.05267C1.90057 1.33238 2.82692 0.927734 3.79282 0.927734L25.6445 0.927734C26.6104 0.927734 27.5367 1.33238 28.2197 2.05267C28.9027 2.77295 29.2864 3.74986 29.2864 4.76849V20.1315C29.2864 21.1502 28.9027 22.1271 28.2197 22.8473C27.5367 23.5676 26.6104 23.9723 25.6445 23.9723H21.092C20.8093 23.9723 20.5305 24.0417 20.2777 24.175C20.0248 24.3083 19.8049 24.5019 19.6353 24.7404L16.1754 29.6047C16.0058 29.8432 15.7859 30.0368 15.533 30.1702C15.2801 30.3035 15.0013 30.3729 14.7186 30.3729C14.4359 30.3729 14.1571 30.3035 13.9043 30.1702C13.6514 30.0368 13.4315 29.8432 13.2619 29.6047L9.80202 24.7404C9.6324 24.5019 9.41246 24.3083 9.15961 24.175C8.90675 24.0417 8.62794 23.9723 8.34524 23.9723H3.79282C2.82692 23.9723 1.90057 23.5676 1.21758 22.8473C0.534582 22.1271 0.150879 21.1502 0.150879 20.1315V4.76849ZM6.52427 6.68887C6.2828 6.68887 6.05121 6.79003 5.88046 6.9701C5.70971 7.15017 5.61379 7.3944 5.61379 7.64906C5.61379 7.90372 5.70971 8.14794 5.88046 8.32801C6.05121 8.50809 6.2828 8.60925 6.52427 8.60925H22.913C23.1545 8.60925 23.3861 8.50809 23.5568 8.32801C23.7276 8.14794 23.8235 7.90372 23.8235 7.64906C23.8235 7.3944 23.7276 7.15017 23.5568 6.9701C23.3861 6.79003 23.1545 6.68887 22.913 6.68887H6.52427ZM6.52427 11.4898C6.2828 11.4898 6.05121 11.591 5.88046 11.771C5.70971 11.9511 5.61379 12.1953 5.61379 12.45C5.61379 12.7047 5.70971 12.9489 5.88046 13.129C6.05121 13.309 6.2828 13.4102 6.52427 13.4102H22.913C23.1545 13.4102 23.3861 13.309 23.5568 13.129C23.7276 12.9489 23.8235 12.7047 23.8235 12.45C23.8235 12.1953 23.7276 11.9511 23.5568 11.771C23.3861 11.591 23.1545 11.4898 22.913 11.4898H6.52427ZM6.52427 16.2908C6.2828 16.2908 6.05121 16.3919 5.88046 16.572C5.70971 16.7521 5.61379 16.9963 5.61379 17.251C5.61379 17.5056 5.70971 17.7498 5.88046 17.9299C6.05121 18.11 6.2828 18.2111 6.52427 18.2111H15.6291C15.8706 18.2111 16.1022 18.11 16.2729 17.9299C16.4437 17.7498 16.5396 17.5056 16.5396 17.251C16.5396 16.9963 16.4437 16.7521 16.2729 16.572C16.1022 16.3919 15.8706 16.2908 15.6291 16.2908H6.52427Z" fill="#838492"/>
</svg>
