<svg width="31" height="32" viewBox="0 0 31 32" fill="none" xmlns="http://www.w3.org/2000/svg">
<path d="M11.0825 23.3497C13.8737 23.3497 16.4179 22.2518 18.37 20.4568L20.4868 25.1147C20.4868 25.1147 20.9222 25.4873 21.5206 26.1062C22.1333 26.71 22.9392 27.5268 23.7118 28.3802L25.8618 30.6958L26.8181 31.7705L30.1761 28.2421L29.1533 27.2374L26.9495 24.9783C26.208 24.232 25.4863 23.4643 24.7852 22.676C24.1963 22.0472 23.8416 21.5897 23.8416 21.5897L19.4086 19.3655C21.1841 17.2496 22.1641 14.5259 22.165 11.705C22.165 5.28545 17.1921 0.0603027 11.0825 0.0603027C4.97288 0.0603027 0 5.28545 0 11.705C0 18.1246 4.97288 23.3497 11.0825 23.3497Z" fill="#838492"/>
</svg>
