<svg width="28" height="37" viewBox="0 0 28 37" fill="none" xmlns="http://www.w3.org/2000/svg">
<path d="M14.0895 36.4871C15.9495 36.4871 17.4713 34.8308 17.4713 32.8065H10.7077C10.7077 33.7826 11.064 34.7188 11.6982 35.4091C12.3324 36.0993 13.1926 36.4871 14.0895 36.4871ZM24.2349 25.4452V16.2436C24.2349 10.5938 21.4618 5.86415 16.6258 4.61273V3.36131C16.6258 1.83385 15.4929 0.60083 14.0895 0.60083C12.686 0.60083 11.5531 1.83385 11.5531 3.36131V4.61273C6.70022 5.86415 3.94406 10.5754 3.94406 16.2436V25.4452L0.562256 29.1258V30.9662H27.6167V29.1258L24.2349 25.4452Z" fill="#838492"/>
</svg>
