<svg width="30" height="32" viewBox="0 0 30 32" fill="none" xmlns="http://www.w3.org/2000/svg">
<path d="M14.5678 0C10.7186 0.0505431 7.04013 1.73721 4.31815 4.69973C1.59616 7.66225 0.0464393 11.6658 0 15.8551C0.0464393 20.0444 1.59616 24.0479 4.31815 27.0104C7.04013 29.973 10.7186 31.6596 14.5678 31.7102C18.4169 31.6596 22.0954 29.973 24.8174 27.0104C27.5394 24.0479 29.0891 20.0444 29.1355 15.8551C29.0891 11.6658 27.5394 7.66225 24.8174 4.69973C22.0954 1.73721 18.4169 0.0505431 14.5678 0ZM22.8922 16.9876H15.6083V24.9151H13.5272V16.9876H6.24333V14.7226H13.5272V6.79504H15.6083V14.7226H22.8922V16.9876Z" fill="white"/>
</svg>
