<svg width="21" height="31" viewBox="0 0 21 31" fill="none" xmlns="http://www.w3.org/2000/svg">
<path d="M0.258545 4.6083V29.4521C0.25844 29.6119 0.295589 29.7689 0.366335 29.9078C0.43708 30.0467 0.538984 30.1626 0.662015 30.2441C0.785046 30.3256 0.924962 30.37 1.06799 30.3728C1.21102 30.3755 1.35223 30.3367 1.47773 30.26L10.1438 24.9784L18.8099 30.26C18.9354 30.3367 19.0766 30.3755 19.2196 30.3728C19.3627 30.37 19.5026 30.3256 19.6256 30.2441C19.7486 30.1626 19.8505 30.0467 19.9213 29.9078C19.992 29.7689 20.0292 29.6119 20.0291 29.4521V4.6083C20.0291 3.63215 19.6819 2.69598 19.064 2.00575C18.446 1.31551 17.6079 0.927734 16.734 0.927734L3.55363 0.927734C2.67972 0.927734 1.8416 1.31551 1.22365 2.00575C0.605705 2.69598 0.258545 3.63215 0.258545 4.6083Z" fill="#838492"/>
</svg>
