<svg width="39" height="38" viewBox="0 0 39 38" fill="none" xmlns="http://www.w3.org/2000/svg">
<path fill-rule="evenodd" clip-rule="evenodd" d="M31.4166 35.889C32.8532 35.889 34.2309 35.3329 35.2467 34.3431C36.2626 33.3534 36.8332 32.011 36.8332 30.6112C36.8332 29.2115 36.2626 27.8691 35.2467 26.8793C34.2309 25.8895 32.8532 25.3335 31.4166 25.3335C29.98 25.3335 28.6022 25.8895 27.5864 26.8793C26.5706 27.8691 25.9999 29.2115 25.9999 30.6112C25.9999 32.011 26.5706 33.3534 27.5864 34.3431C28.6022 35.3329 29.98 35.889 31.4166 35.889ZM31.4166 38C33.4278 38 35.3567 37.2216 36.7788 35.8359C38.201 34.4502 38.9999 32.5709 38.9999 30.6112C38.9999 28.6516 38.201 26.7722 36.7788 25.3865C35.3567 24.0009 33.4278 23.2224 31.4166 23.2224C29.4054 23.2224 27.4765 24.0009 26.0544 25.3865C24.6322 26.7722 23.8333 28.6516 23.8333 30.6112C23.8333 32.5709 24.6322 34.4502 26.0544 35.8359C27.4765 37.2216 29.4054 38 31.4166 38Z" fill="#838492"/>
<path fill-rule="evenodd" clip-rule="evenodd" d="M31.4173 26.9162C31.7046 26.9162 31.9802 27.0274 32.1833 27.2254C32.3865 27.4233 32.5006 27.6918 32.5006 27.9718V30.1736L33.2665 30.9199C33.4639 31.119 33.5731 31.3856 33.5706 31.6624C33.5681 31.9391 33.4542 32.2039 33.2533 32.3996C33.0525 32.5953 32.7808 32.7063 32.4967 32.7087C32.2127 32.7111 31.939 32.6047 31.7347 32.4124L30.334 31.0476V27.9718C30.334 27.6918 30.4481 27.4233 30.6513 27.2254C30.8544 27.0274 31.13 26.9162 31.4173 26.9162ZM8.66731 17.9441H6.50065V20.0552H8.66731V17.9441ZM6.50065 15.833C5.92601 15.833 5.37491 16.0554 4.96859 16.4513C4.56226 16.8472 4.33398 17.3842 4.33398 17.9441V20.0552C4.33398 20.6151 4.56226 21.152 4.96859 21.548C5.37491 21.9439 5.92601 22.1663 6.50065 22.1663H8.66731C9.24195 22.1663 9.79305 21.9439 10.1994 21.548C10.6057 21.152 10.834 20.6151 10.834 20.0552V17.9441C10.834 17.3842 10.6057 16.8472 10.1994 16.4513C9.79305 16.0554 9.24195 15.833 8.66731 15.833H6.50065ZM17.334 17.9441H15.1673V20.0552H17.334V17.9441ZM15.1673 15.833C14.5927 15.833 14.0416 16.0554 13.6352 16.4513C13.2289 16.8472 13.0006 17.3842 13.0006 17.9441V20.0552C13.0006 20.6151 13.2289 21.152 13.6352 21.548C14.0416 21.9439 14.5927 22.1663 15.1673 22.1663H17.334C17.9086 22.1663 18.4597 21.9439 18.866 21.548C19.2724 21.152 19.5006 20.6151 19.5006 20.0552V17.9441C19.5006 17.3842 19.2724 16.8472 18.866 16.4513C18.4597 16.0554 17.9086 15.833 17.334 15.833H15.1673ZM26.0006 17.9441H23.834V20.0552H26.0006V17.9441ZM23.834 15.833C23.2593 15.833 22.7082 16.0554 22.3019 16.4513C21.8956 16.8472 21.6673 17.3842 21.6673 17.9441V20.0552C21.6673 20.6151 21.8956 21.152 22.3019 21.548C22.7082 21.9439 23.2593 22.1663 23.834 22.1663H26.0006C26.5753 22.1663 27.1264 21.9439 27.5327 21.548C27.939 21.152 28.1673 20.6151 28.1673 20.0552V17.9441C28.1673 17.3842 27.939 16.8472 27.5327 16.4513C27.1264 16.0554 26.5753 15.833 26.0006 15.833H23.834ZM8.66731 26.3885H6.50065V28.4995H8.66731V26.3885ZM6.50065 24.2774C5.92601 24.2774 5.37491 24.4998 4.96859 24.8957C4.56226 25.2916 4.33398 25.8286 4.33398 26.3885V28.4995C4.33398 29.0594 4.56226 29.5964 4.96859 29.9923C5.37491 30.3882 5.92601 30.6106 6.50065 30.6106H8.66731C9.24195 30.6106 9.79305 30.3882 10.1994 29.9923C10.6057 29.5964 10.834 29.0594 10.834 28.4995V26.3885C10.834 25.8286 10.6057 25.2916 10.1994 24.8957C9.79305 24.4998 9.24195 24.2774 8.66731 24.2774H6.50065ZM17.334 26.3885H15.1673V28.4995H17.334V26.3885ZM15.1673 24.2774C14.5927 24.2774 14.0416 24.4998 13.6352 24.8957C13.2289 25.2916 13.0006 25.8286 13.0006 26.3885V28.4995C13.0006 29.0594 13.2289 29.5964 13.6352 29.9923C14.0416 30.3882 14.5927 30.6106 15.1673 30.6106H17.334C17.9086 30.6106 18.4597 30.3882 18.866 29.9923C19.2724 29.5964 19.5006 29.0594 19.5006 28.4995V26.3885C19.5006 25.8286 19.2724 25.2916 18.866 24.8957C18.4597 24.4998 17.9086 24.2774 17.334 24.2774H15.1673Z" fill="#838492"/>
<path fill-rule="evenodd" clip-rule="evenodd" d="M2.16666 6.33338C2.16666 6.05343 2.2808 5.78495 2.48397 5.587C2.68713 5.38905 2.96268 5.27784 3.25 5.27784H8.66666V3.16675H3.25C2.38804 3.16675 1.56139 3.50037 0.951902 4.09423C0.34241 4.68809 0 5.49354 0 6.33338V31.6665C0 32.5063 0.34241 33.3117 0.951902 33.9056C1.56139 34.4995 2.38804 34.8331 3.25 34.8331H25.1929C24.7309 34.1883 24.378 33.4756 24.1475 32.722H3.25C2.96268 32.722 2.68713 32.6108 2.48397 32.4128C2.2808 32.2149 2.16666 31.9464 2.16666 31.6665V6.33338ZM30.3333 23.296C31.0519 23.1958 31.7814 23.1958 32.5 23.296V6.33338C32.5 5.49354 32.1576 4.68809 31.5481 4.09423C30.9386 3.50037 30.1119 3.16675 29.25 3.16675H26V5.27784H29.25C29.5373 5.27784 29.8128 5.38905 30.016 5.587C30.2192 5.78495 30.3333 6.05343 30.3333 6.33338V23.296ZM10.8333 5.27784H22.2766V3.16675H10.8333V5.27784Z" fill="#838492"/>
<path fill-rule="evenodd" clip-rule="evenodd" d="M23.8342 3.16675H10.8342V6.33338C10.8342 6.61333 10.7201 6.88181 10.5169 7.07976C10.3138 7.27772 10.0382 7.38893 9.75089 7.38893C9.46357 7.38893 9.18802 7.27772 8.98486 7.07976C8.78169 6.88181 8.66756 6.61333 8.66756 6.33338V3.16675H3.25089C2.67626 3.16675 2.12516 3.38917 1.71883 3.78507C1.3125 4.18098 1.08423 4.71794 1.08423 5.27784V10.5556C1.08423 11.1155 1.3125 11.6524 1.71883 12.0483C2.12516 12.4442 2.67626 12.6667 3.25089 12.6667H29.2509C29.8255 12.6667 30.3766 12.4442 30.7829 12.0483C31.1893 11.6524 31.4175 11.1155 31.4175 10.5556V5.27784C31.4175 4.71794 31.1893 4.18098 30.7829 3.78507C30.3766 3.38917 29.8255 3.16675 29.2509 3.16675H26.0009V6.33338C26.0009 6.61333 25.8867 6.88181 25.6836 7.07976C25.4804 7.27772 25.2049 7.38893 24.9175 7.38893C24.6302 7.38893 24.3547 7.27772 24.1515 7.07976C23.9484 6.88181 23.8342 6.61333 23.8342 6.33338V3.16675Z" fill="#838492"/>
<path fill-rule="evenodd" clip-rule="evenodd" d="M32.4998 12.667H2.1665V10.5559H32.4998V12.667Z" fill="#838492"/>
<path d="M6.50024 1.05554C6.50024 0.775597 6.61438 0.507115 6.81755 0.309162C7.02071 0.111209 7.29626 0 7.58358 0C7.87089 0 8.14644 0.111209 8.34961 0.309162C8.55277 0.507115 8.66691 0.775597 8.66691 1.05554V5.27772C8.66691 5.55767 8.55277 5.82615 8.34961 6.02411C8.14644 6.22206 7.87089 6.33327 7.58358 6.33327C7.29626 6.33327 7.02071 6.22206 6.81755 6.02411C6.61438 5.82615 6.50024 5.55767 6.50024 5.27772V1.05554ZM21.6669 1.05554C21.6669 0.775597 21.781 0.507115 21.9842 0.309162C22.1874 0.111209 22.4629 0 22.7502 0C23.0375 0 23.3131 0.111209 23.5163 0.309162C23.7194 0.507115 23.8336 0.775597 23.8336 1.05554V5.27772C23.8336 5.55767 23.7194 5.82615 23.5163 6.02411C23.3131 6.22206 23.0375 6.33327 22.7502 6.33327C22.4629 6.33327 22.1874 6.22206 21.9842 6.02411C21.781 5.82615 21.6669 5.55767 21.6669 5.27772V1.05554Z" fill="#838492"/>
</svg>
