<svg width="30" height="33" viewBox="0 0 30 33" fill="none" xmlns="http://www.w3.org/2000/svg">
<path d="M14.7177 0.927734C10.8685 0.978277 7.19003 2.66495 4.46805 5.62747C1.74606 8.58999 0.196342 12.5935 0.149902 16.7828C0.196342 20.9722 1.74606 24.9757 4.46805 27.9382C7.19003 30.9007 10.8685 32.5874 14.7177 32.6379C18.5668 32.5874 22.2453 30.9007 24.9673 27.9382C27.6893 24.9757 29.239 20.9722 29.2854 16.7828C29.239 12.5935 27.6893 8.58999 24.9673 5.62747C22.2453 2.66495 18.5668 0.978277 14.7177 0.927734V0.927734ZM23.0421 17.9153H15.7582V25.8429H13.6771V17.9153H6.39323V15.6503H13.6771V7.72277H15.7582V15.6503H23.0421V17.9153Z" fill="#838492"/>
</svg>
