<svg width="13" height="6" viewBox="0 0 13 6" fill="none" xmlns="http://www.w3.org/2000/svg">
<path d="M12.6807 0.266469C12.5801 0.181999 12.4606 0.114984 12.3291 0.0692601C12.1976 0.0235359 12.0567 0 11.9143 0C11.7719 0 11.6309 0.0235359 11.4994 0.0692601C11.3679 0.114984 11.2485 0.181999 11.1479 0.266469L6.93009 3.80184L2.71228 0.266469C2.50902 0.0960988 2.23334 0.000385821 1.9459 0.000385821C1.65845 0.000385821 1.38277 0.0960988 1.17951 0.266469C0.976256 0.436838 0.862069 0.667909 0.862069 0.908848C0.862069 1.14979 0.976256 1.38086 1.17951 1.55123L6.16914 5.73353C6.26971 5.818 6.38917 5.88502 6.52067 5.93074C6.65218 5.97646 6.79315 6 6.93552 6C7.07789 6 7.21887 5.97646 7.35037 5.93074C7.48188 5.88502 7.60134 5.818 7.7019 5.73353L12.6915 1.55123C13.1046 1.20498 13.1046 0.621828 12.6807 0.266469Z" fill="#838492"/>
</svg>
